<svg id="Capa_1" enable-background="new 0 0 512 512" height="512" viewBox="0 0 512 512" width="512" xmlns="http://www.w3.org/2000/svg" xmlns:xlink="http://www.w3.org/1999/xlink"><linearGradient id="SVGID_1_" gradientUnits="userSpaceOnUse" x1="256" x2="256" y1="512" y2="0"><stop offset="0" stop-color="#addcff"/><stop offset=".5028" stop-color="#eaf6ff"/><stop offset="1" stop-color="#eaf6ff"/></linearGradient><linearGradient id="SVGID_2_" gradientUnits="userSpaceOnUse" x1="256" x2="256" y1="407" y2="105"><stop offset="0" stop-color="#00c0ff"/><stop offset="1" stop-color="#5558ff"/></linearGradient><g><g><g><circle cx="256" cy="256" fill="url(#SVGID_1_)" r="256"/></g></g><g><g><path d="m362.588 229.353h-8.882v-26.647c0-24.487-19.916-44.412-44.412-44.412h-1.168l26.323-39.485c2.724-4.086 1.613-9.594-2.464-12.317-4.06-2.689-9.576-1.639-12.317 2.463l-32.892 49.339h-61.552l-32.893-49.339c-2.741-4.103-8.275-5.17-12.317-2.463-4.077 2.724-5.187 8.232-2.463 12.317l26.323 39.485h-1.168c-24.496 0-44.412 19.925-44.412 44.412v26.647h-8.882c-24.496 0-44.412 19.925-44.412 44.412v17.765c0 24.487 19.916 44.412 44.412 44.412h17.765c4.91 0 8.882-3.973 8.882-8.882v-124.354c0-14.694 11.953-26.647 26.647-26.647h106.588c14.694 0 26.647 11.953 26.647 26.647 0 3.223 0 143.913 0 142.118 0 14.694-11.953 26.647-26.647 26.647h-28.283c-3.679-10.317-13.446-17.765-25.011-17.765-14.694 0-26.647 11.953-26.647 26.647s11.953 26.647 26.647 26.647c11.565 0 21.332-7.448 25.011-17.765h28.283c24.496 0 44.412-19.925 44.412-44.412v-8.882h8.882c24.496 0 44.412-19.925 44.412-44.412v-17.765c0-24.487-19.916-44.411-44.412-44.411zm-142.117 0c4.892 0 8.882 3.981 8.882 8.882 0 4.91 3.973 8.882 8.882 8.882s8.882-3.973 8.882-8.882c0-14.694-11.953-26.647-26.647-26.647s-26.647 11.953-26.647 26.647c0 4.91 3.973 8.882 8.882 8.882s8.882-3.973 8.882-8.882c.001-4.901 3.991-8.882 8.884-8.882zm62.176 8.882c0-4.901 3.99-8.882 8.882-8.882s8.882 3.981 8.882 8.882c0 4.91 3.973 8.882 8.882 8.882 4.91 0 8.883-3.973 8.883-8.882 0-14.694-11.953-26.647-26.647-26.647s-26.647 11.953-26.647 26.647c0 4.91 3.973 8.882 8.883 8.882 4.909.001 8.882-3.972 8.882-8.882zm-8.882 79.941c14.694 0 26.647-11.953 26.647-26.647 0-4.91-3.973-8.882-8.882-8.882s-8.882 3.973-8.882 8.882c0 4.901-3.99 8.882-8.882 8.882h-35.53c-4.892 0-8.882-3.981-8.882-8.882 0-4.91-3.973-8.882-8.882-8.882s-8.882 3.973-8.882 8.882c0 14.694 11.953 26.647 26.647 26.647z" fill="url(#SVGID_2_)"/></g></g></g></svg>