<?xml version="1.0" encoding="iso-8859-1"?>
<!-- Generator: Adobe Illustrator 19.0.0, SVG Export Plug-In . SVG Version: 6.00 Build 0)  -->
<svg version="1.1" id="Layer_1" xmlns="http://www.w3.org/2000/svg" xmlns:xlink="http://www.w3.org/1999/xlink" x="0px" y="0px"
	 viewBox="0 0 495 495" style="enable-background:new 0 0 495 495;" xml:space="preserve">
<g>
	<polygon style="fill:#00969B;" points="247.5,0 247.5,40 455,40 455,455 247.5,455 247.5,495 495,495 495,0 	"/>
	<polygon style="fill:#00B6BD;" points="40,455 40,40 247.5,40 247.5,0 0,0 0,495 247.5,495 247.5,455 	"/>
	<path style="fill:#00B6BD;" d="M178.789,389.199l-75.155-205.796C94.885,202.995,90,224.66,90,247.504
		C90,309.796,126.223,363.707,178.789,389.199z"/>
	<path style="fill:#00B6BD;" d="M250.291,261.287l-47.277,137.315c14.113,4.134,29.031,6.398,44.507,6.398
		c18.326,0,35.917-3.19,52.295-8.958c-0.42-0.673-0.804-1.346-1.11-2.15L250.291,261.287z"/>
	<path style="fill:#00B6BD;" d="M168.063,159.178c8.459-0.481,9.458,11.961,0.955,12.995c0,0-8.495,0.98-18.029,1.503l57.372,170.57
		l34.468-103.357l-24.549-67.212c-8.478-0.523-16.517-1.503-16.517-1.503c-8.476-0.517-7.48-13.477,1.023-12.995
		c0,0,25.99,2.018,41.468,2.018c16.456,0,41.99-2.018,41.99-2.018c8.478-0.481,9.475,11.961,0.98,12.995
		c0,0-8.495,0.98-18.019,1.503l56.934,169.261l15.705-52.481c7.978-20.458,11.98-37.42,11.98-50.895
		c0-19.472-7-32.973-12.978-43.451c-7.978-12.978-15.458-23.937-15.458-36.932c0-14.479,10.957-27.938,26.453-27.938
		c0.672,0,1.346,0.079,2.018,0.139C325.849,105.694,288.534,90,247.521,90c-55.04,0-103.453,28.245-131.601,70.987
		c3.695,0.132,7.174,0.209,10.13,0.209C142.53,161.196,168.063,159.178,168.063,159.178z"/>
	<path style="fill:#00B6BD;" d="M326.715,383.624C373.512,356.323,405,305.602,405,247.504c0-27.398-6.975-53.124-19.28-75.577
		c0.674,5.053,1.075,10.417,1.075,16.222c0,15.964-3.004,33.916-11.999,56.392L326.715,383.624z"/>
</g>
<g>
</g>
<g>
</g>
<g>
</g>
<g>
</g>
<g>
</g>
<g>
</g>
<g>
</g>
<g>
</g>
<g>
</g>
<g>
</g>
<g>
</g>
<g>
</g>
<g>
</g>
<g>
</g>
<g>
</g>
</svg>
