<?xml version="1.0" encoding="iso-8859-1"?>
<!-- Generator: Adobe Illustrator 19.0.0, SVG Export Plug-In . SVG Version: 6.00 Build 0)  -->
<svg version="1.1" id="Capa_1" xmlns="http://www.w3.org/2000/svg" xmlns:xlink="http://www.w3.org/1999/xlink" x="0px" y="0px"
	 viewBox="0 0 512 512" style="enable-background:new 0 0 512 512;" xml:space="preserve">
<path style="fill:#3C3A41;" d="M477.8,128.5c-28.5-49.801-127.599-33.6-221.8,9.6c-17.701,8.099-35.4,17.1-52.5,26.999
	c-57.001,33.001-106.901,72.301-138.999,111C29.7,318.699,18.9,356.8,34.2,383.5c12.299,21.599,37.8,30.599,70.199,30.599
	c42.601,0,98.2-15.599,151.601-40.199c17.999-8.101,35.4-17.1,52.5-27.001c57.001-32.999,106.901-72.299,138.999-111
	C482.3,193.299,493.1,155.2,477.8,128.5z M424.1,216.7c-29.399,36-76.601,73.2-130.6,104.399c-12.599,7.2-25.201,13.801-37.5,19.799
	c-96.301,47.1-180.099,54.6-196,27.601c-8.401-14.7,2.1-42.001,27.9-73.2c29.399-36,76.601-73.2,130.6-104.401
	c12.599-7.2,25.201-13.799,37.5-19.799c60-29.099,115.3-43.2,151.901-43.2c22.2,0,38.099,5.4,44.099,15.601
	C460.401,158.2,449.9,185.499,424.1,216.7z"/>
<path style="fill:#2B292C;" d="M447.499,235.899C415.401,274.6,365.5,313.9,308.5,346.899c-17.1,9.901-34.501,18.9-52.5,27.001
	v-33.001c12.299-5.999,24.901-12.599,37.5-19.799c54-31.2,101.201-68.4,130.6-104.4c25.8-31.201,36.301-58.5,27.9-73.2
	c-6-10.201-21.899-15.601-44.099-15.601C371.3,127.899,316,142,256,171.099V138.1c94.2-43.2,193.299-59.401,221.8-9.6
	C493.1,155.2,482.3,193.299,447.499,235.899z"/>
<path style="fill:#FD3C65;" d="M256,211c-24.901,0-45,20.099-45,45c0,24.899,20.099,45,45,45s45-20.101,45-45
	C301,231.099,280.901,211,256,211z"/>
<g>
	<path style="fill:#57555C;" d="M448.1,407.5c-11.4,4.501-25.199,6.599-40.8,6.599c-40.8,0-95.2-14.099-151.3-40.199
		c-17.401-7.8-35.099-16.8-52.5-27.001C108.1,292,39,221.8,28.5,168.699C27,160.6,32.4,152.8,40.499,151.3
		c8.101-1.8,15.901,3.6,17.701,11.699c6.899,35.7,60.7,100.501,160.3,158.101c12.9,7.2,25.201,13.801,37.5,19.799
		c81,39.6,151,50.101,181.3,38.701c7.8-3.001,16.5,0.899,19.499,8.699C459.5,396.099,455.9,404.5,448.1,407.5z"/>
	<path style="fill:#57555C;" d="M483.5,343.299c1.5,8.101-3.9,15.901-11.999,17.401c-0.901,0.3-2.1,0.3-3.001,0.3
		c-6.899,0-13.2-4.801-14.7-12.001c-6.899-35.7-60.7-100.499-160.3-158.101c-12.9-7.2-25.201-13.799-37.5-19.799
		C175,131.499,105,121,74.7,132.4c-7.8,2.999-16.5-0.901-19.499-8.701C52.5,115.899,56.1,107.5,63.9,104.5
		c40.8-15.6,114.399-2.4,192.1,33.3c17.401,8.099,35.099,17.1,52.5,27.299C403.9,220,473,290.2,483.5,343.299z"/>
</g>
<g>
	<path style="fill:#3C3A41;" d="M456.799,388.299c2.701,7.8-0.899,16.201-8.699,19.2c-11.4,4.501-25.199,6.599-40.8,6.599
		c-40.8,0-95.2-14.099-151.3-40.199v-33.001c81,39.6,151,50.101,181.3,38.701C445.101,376.599,453.8,380.499,456.799,388.299z"/>
	<path style="fill:#3C3A41;" d="M483.5,343.299c1.5,8.101-3.9,15.901-11.999,17.401c-0.901,0.3-2.1,0.3-3.001,0.3
		c-6.899,0-13.2-4.801-14.7-12.001c-6.899-35.7-60.7-100.499-160.3-158.101c-12.9-7.2-25.201-13.799-37.5-19.799v-33.3
		c17.401,8.099,35.099,17.1,52.5,27.299C403.9,220,473,290.2,483.5,343.299z"/>
</g>
<path style="fill:#E50027;" d="M256,301v-90c24.901,0,45,20.099,45,45C301,280.899,280.901,301,256,301z"/>
<path style="fill:#787780;" d="M256,0c-68.101,0-105,132.4-105,256s36.899,256,105,256s105-132.4,105-256S324.101,0,256,0z M256,482
	c-35.4,0-75-97.301-75-226c0-128.701,39.6-226,75-226s75,97.299,75,226C331,384.699,291.4,482,256,482z"/>
<path style="fill:#57555C;" d="M361,256c0,123.6-36.899,256-105,256v-30c35.4,0,75-97.301,75-226c0-128.701-39.6-226-75-226V0
	C324.101,0,361,132.4,361,256z"/>
<path style="fill:#11AD94;" d="M467,421c-24.814,0-45-20.186-45-45s20.186-45,45-45s45,20.186,45,45S491.814,421,467,421z"/>
<path style="fill:#17CEB4;" d="M45,181c-24.814,0-45-20.186-45-45s20.186-45,45-45s45,20.186,45,45S69.814,181,45,181z"/>
<g>
</g>
<g>
</g>
<g>
</g>
<g>
</g>
<g>
</g>
<g>
</g>
<g>
</g>
<g>
</g>
<g>
</g>
<g>
</g>
<g>
</g>
<g>
</g>
<g>
</g>
<g>
</g>
<g>
</g>
</svg>
